<?xml version="1.0" encoding="UTF-8" standalone="no"?><!DOCTYPE svg PUBLIC "-//W3C//DTD SVG 1.1//EN" "http://www.w3.org/Graphics/SVG/1.1/DTD/svg11.dtd"><svg width="100%" height="100%" viewBox="0 0 1541 1301" version="1.1" xmlns="http://www.w3.org/2000/svg" xmlns:xlink="http://www.w3.org/1999/xlink" xml:space="preserve" xmlns:serif="http://www.serif.com/" style="fill-rule:evenodd;clip-rule:evenodd;stroke-linecap:round;stroke-linejoin:round;stroke-miterlimit:1.5;"><g id="fetchcat_icon"><g><path d="M1200.49,114.426c0,0 291.942,-116.049 332.085,-73.717c40.142,42.331 -91.231,327.706 -91.231,327.706c0,-0 -78.474,-167.985 -240.854,-253.989Z" style="fill:url(#_Linear1);"/><path d="M91.009,368.415c0,-0 -123.754,-288.76 -82.502,-330.012c41.251,-41.251 330.011,82.503 330.011,82.503c0,0 -165.843,82.904 -247.509,247.509Z" style="fill:url(#_Linear2);"/><ellipse cx="770.145" cy="650.821" rx="770.057" ry="649.99" style="fill:url(#_Linear3);"/></g><ellipse cx="384.488" cy="558.362" rx="191.922" ry="138.61"/><ellipse cx="1155.8" cy="558.362" rx="191.922" ry="138.61"/><circle cx="1200.72" cy="528.926" r="74.436" style="fill:#fff;"/><circle cx="429.41" cy="528.926" r="74.436" style="fill:#fff;"/><path d="M636.668,937.81c0,0 132.544,-10.213 133.477,-112.443c-1.21,104.103 133.476,112.443 133.476,112.443" style="fill:none;stroke:#000;stroke-width:18.65px;"/><path d="M770.145,825.367l-64.198,-128.395l128.395,0l-64.197,128.395Z" style="stroke:#000;stroke-width:18.65px;"/></g><defs><linearGradient id="_Linear1" x1="0" y1="0" x2="1" y2="0" gradientUnits="userSpaceOnUse" gradientTransform="matrix(0,1299.98,-1299.98,0,770.145,0.83048)"><stop offset="0" style="stop-color:#ffd653;stop-opacity:1"/><stop offset="1" style="stop-color:#ff971c;stop-opacity:1"/></linearGradient><linearGradient id="_Linear2" x1="0" y1="0" x2="1" y2="0" gradientUnits="userSpaceOnUse" gradientTransform="matrix(-1.13687e-13,1299.98,-1299.98,-1.13687e-13,770.145,0.83048)"><stop offset="0" style="stop-color:#ffd653;stop-opacity:1"/><stop offset="1" style="stop-color:#ff971c;stop-opacity:1"/></linearGradient><linearGradient id="_Linear3" x1="0" y1="0" x2="1" y2="0" gradientUnits="userSpaceOnUse" gradientTransform="matrix(7.96009e-14,1299.98,-1299.98,7.96009e-14,770.145,0.83048)"><stop offset="0" style="stop-color:#ffd653;stop-opacity:1"/><stop offset="1" style="stop-color:#ff971c;stop-opacity:1"/></linearGradient></defs></svg>